<?xml version="1.0" standalone="no"?>
<!DOCTYPE svg PUBLIC "-//W3C//DTD SVG 20010904//EN"
 "http://www.w3.org/TR/2001/REC-SVG-20010904/DTD/svg10.dtd">
<svg version="1.0" xmlns="http://www.w3.org/2000/svg"
 width="1350.000000pt" height="1050.000000pt" viewBox="0 0 1350.000000 1050.000000"
 preserveAspectRatio="xMidYMid meet">
<metadata>
Created by potrace 1.10, written by Peter Selinger 2001-2011
</metadata>
<g transform="translate(0.000000,1050.000000) scale(0.100000,-0.100000)"
fill="gray" stroke="none">
<path d="M3185 10385 c-11 -2 -69 -9 -130 -15 -161 -16 -369 -70 -530 -137
-85 -36 -300 -169 -320 -199 -29 -44 -35 -123 -19 -241 7 -59 14 -113 14 -119
0 -7 -57 -46 -127 -88 -173 -104 -356 -233 -501 -354 -154 -127 -159 -129
-322 -147 -131 -15 -233 -32 -375 -66 -72 -16 -186 -72 -217 -105 -31 -34 -95
-134 -139 -219 -30 -57 -144 -256 -215 -375 -18 -31 -40 -76 -49 -100 -22 -63
-30 -225 -15 -350 25 -224 26 -213 -20 -350 -79 -235 -83 -266 -50 -419 25
-118 72 -235 175 -436 130 -255 175 -334 202 -355 14 -11 108 -100 208 -198
217 -212 279 -266 399 -353 121 -87 212 -134 315 -164 83 -23 353 -21 501 5
169 29 258 47 318 65 28 8 73 21 100 29 57 17 212 62 267 77 22 6 60 17 85 25
83 25 178 37 207 26 16 -5 79 -44 142 -86 145 -97 349 -196 405 -196 7 0 21
-8 30 -19 16 -17 16 -23 -5 -102 -18 -67 -22 -111 -22 -219 0 -151 20 -254 76
-395 33 -84 191 -400 233 -467 39 -61 174 -335 201 -408 92 -243 107 -466 47
-670 -9 -30 -40 -127 -70 -215 -77 -233 -85 -276 -85 -447 0 -82 2 -152 5
-156 3 -5 12 -48 20 -98 9 -49 22 -116 30 -149 7 -33 22 -94 31 -135 26 -113
42 -179 60 -245 9 -33 20 -78 26 -100 19 -76 101 -330 140 -435 86 -228 104
-271 180 -422 175 -352 348 -556 549 -649 l75 -34 155 0 c153 0 175 3 355 47
294 71 693 294 933 522 30 28 59 54 66 58 16 9 187 202 220 248 195 274 290
479 332 715 18 103 23 283 11 402 l-9 81 139 90 c185 121 249 170 366 282 156
150 219 256 279 470 21 77 14 375 -11 500 -55 266 -72 530 -43 685 40 216 116
328 467 685 227 231 357 373 430 471 11 14 58 77 105 140 310 413 456 735 467
1034 7 175 -21 240 -126 297 -40 22 -39 36 4 54 101 42 262 74 402 81 115 5
169 -3 304 -47 60 -19 249 -118 275 -144 8 -9 20 -16 25 -16 16 0 10 19 -11
30 -30 16 -90 100 -90 127 0 38 46 50 220 56 168 7 418 32 463 47 24 8 36 5
72 -20 24 -17 47 -35 50 -40 9 -15 176 -125 216 -143 19 -8 66 -29 104 -46
142 -63 370 -110 540 -110 136 -1 248 21 335 66 14 7 33 13 43 13 9 0 17 4 17
9 0 4 -19 4 -42 -1 -131 -29 -365 -33 -431 -9 -12 5 -49 16 -82 26 -114 32
-190 65 -285 121 -52 31 -97 60 -100 63 -3 3 -23 18 -45 33 -72 48 -117 92
-110 110 4 9 54 40 112 68 169 84 332 226 440 385 45 66 124 224 147 295 26
82 48 163 58 219 5 31 14 79 19 106 11 62 11 406 0 460 -6 28 -9 32 -10 15 0
-14 -7 -61 -15 -105 -8 -44 -20 -116 -26 -160 -27 -202 -51 -292 -112 -425
-22 -47 -43 -92 -48 -100 -6 -8 -19 -32 -31 -53 -11 -22 -47 -71 -79 -110
-148 -183 -388 -309 -681 -356 -150 -25 -169 -25 -214 -7 -66 28 -49 65 114
241 26 28 64 71 85 97 33 41 36 49 21 54 -10 4 -26 -1 -40 -12 -92 -73 -342
-258 -400 -296 -161 -103 -237 -117 -629 -112 -235 2 -292 6 -304 17 -14 14
-30 73 -58 212 -7 39 -18 135 -23 214 -11 152 -4 250 25 357 9 32 20 76 25 96
20 85 95 215 187 328 53 64 13 49 -60 -22 -36 -35 -78 -85 -93 -113 -16 -27
-42 -67 -58 -88 -31 -40 -116 -230 -117 -260 0 -10 -11 -53 -24 -95 -22 -69
-33 -139 -51 -322 -5 -50 2 -120 25 -255 13 -75 1 -86 -111 -109 -179 -35
-333 -113 -471 -236 -65 -58 -182 -208 -219 -282 -37 -73 -64 -98 -105 -98
-27 0 -43 11 -89 58 -76 78 -187 231 -263 360 -53 90 -252 483 -252 497 0 3
-14 33 -30 67 -17 35 -53 117 -81 183 -28 66 -68 157 -90 203 -22 46 -49 106
-60 135 -11 29 -47 108 -80 176 -34 68 -69 142 -80 165 -17 39 -42 84 -120
221 -130 227 -249 379 -399 510 -89 78 -239 162 -327 184 -21 5 -157 51 -303
101 -249 85 -392 131 -450 143 -14 2 -74 15 -135 28 -155 32 -341 32 -442 0
-39 -12 -88 -34 -110 -48 -55 -36 -112 -112 -153 -202 -3 -8 -14 -19 -22 -25
-17 -10 -43 1 -173 72 -51 27 -60 33 -175 107 -122 78 -289 168 -335 179 -17
4 -40 14 -52 22 -21 13 -22 19 -16 98 5 74 3 89 -17 131 -69 142 -264 258
-495 294 -71 12 -333 23 -370 16z m503 -397 c2 -9 -10 -35 -27 -58 -16 -23
-37 -64 -46 -91 -16 -47 -16 -53 0 -94 11 -31 30 -54 63 -78 57 -40 151 -86
212 -103 204 -56 385 -139 435 -198 67 -80 87 -95 208 -155 154 -76 231 -101
333 -108 114 -8 176 9 228 61 37 37 43 51 64 143 20 88 27 105 55 129 27 23
37 26 79 21 26 -4 63 -13 80 -21 18 -8 83 -28 143 -45 61 -17 130 -37 155 -45
25 -8 79 -24 120 -36 41 -12 86 -25 100 -30 14 -5 41 -12 60 -16 94 -18 383
-108 445 -138 67 -33 194 -144 282 -248 71 -82 229 -327 322 -498 56 -103 265
-525 341 -690 34 -74 75 -162 90 -195 16 -33 38 -82 50 -110 28 -62 103 -221
161 -340 155 -319 314 -524 468 -602 74 -38 75 -38 195 -37 114 0 245 22 321
54 11 5 34 13 50 18 17 6 62 22 102 36 81 29 103 26 103 -13 0 -27 -46 -162
-80 -236 -5 -11 -18 -40 -29 -65 -204 -468 -577 -914 -1046 -1251 -158 -114
-233 -208 -286 -359 -32 -92 -33 -99 -33 -260 0 -146 3 -184 32 -330 18 -91
37 -183 42 -205 38 -166 70 -386 70 -480 0 -70 -23 -200 -47 -265 -21 -56 -72
-135 -119 -184 -48 -49 -166 -137 -234 -174 -202 -109 -329 -191 -367 -236
-31 -37 -61 -104 -74 -166 -5 -25 -14 -151 -19 -280 -9 -262 -12 -275 -91
-430 -45 -86 -78 -141 -181 -298 -161 -243 -281 -378 -453 -508 -74 -57 -195
-134 -208 -134 -4 0 -39 -16 -79 -35 -117 -55 -259 -88 -446 -105 -66 -5 -122
-6 -136 -1 -37 15 -141 136 -227 266 -89 134 -236 424 -276 543 -14 42 -29 82
-32 87 -17 23 -117 318 -140 410 -5 22 -24 87 -41 145 -30 101 -38 135 -82
335 -24 112 -34 339 -19 460 11 94 29 215 56 375 33 201 55 389 55 480 0 89
-22 238 -52 355 -14 56 -165 368 -228 470 -22 36 -40 68 -40 72 0 3 -26 58
-58 122 -68 135 -113 254 -138 366 -22 94 -26 307 -7 370 29 93 53 207 53 247
0 50 -32 117 -72 148 -15 11 -49 30 -75 41 -26 11 -57 24 -68 29 -11 5 -60 25
-110 45 -49 20 -98 40 -107 45 -10 6 -24 10 -31 10 -19 0 -177 78 -214 106
-17 13 -36 24 -41 24 -5 0 -15 6 -21 14 -17 21 -111 63 -179 81 -79 20 -138
19 -252 -6 -203 -43 -277 -58 -335 -68 -33 -6 -89 -17 -125 -25 -36 -7 -126
-26 -200 -41 -74 -14 -189 -38 -254 -52 -66 -14 -145 -29 -175 -34 -31 -5 -67
-11 -81 -15 -26 -6 -28 -5 -210 156 -36 32 -92 80 -125 108 -170 144 -263 222
-348 292 -86 70 -97 85 -161 213 -36 74 -66 137 -66 141 0 3 -41 90 -91 194
-103 211 -99 181 -42 332 l28 75 -2 283 c-3 332 4 385 67 487 22 36 40 68 40
71 0 3 39 72 88 153 48 81 98 168 112 195 14 26 39 56 55 66 60 37 192 61 435
80 142 12 198 29 256 79 39 35 120 129 140 163 31 54 138 119 490 297 116 59
225 118 243 130 72 52 97 171 67 320 -19 92 -16 110 16 130 71 45 159 90 193
101 93 27 264 37 590 36 300 -1 330 -3 333 -18z"/>
<path d="M9313 9808 c-6 -7 -15 -26 -21 -43 -6 -16 -33 -84 -60 -150 -76 -184
-99 -315 -71 -404 28 -91 55 -150 91 -201 22 -30 54 -76 71 -102 67 -98 140
-188 152 -188 28 0 31 361 3 413 -5 11 -12 53 -15 95 -3 43 -15 111 -26 152
-24 91 -33 170 -19 170 13 0 50 -62 58 -98 4 -15 10 -31 14 -37 4 -5 15 -37
25 -70 9 -33 23 -78 31 -100 8 -22 16 -76 20 -120 3 -44 10 -96 15 -115 5 -19
9 -70 9 -112 0 -42 4 -79 9 -82 5 -3 29 36 54 87 55 113 72 204 62 325 -12
146 -100 292 -304 507 -44 47 -82 85 -84 85 -3 0 -9 -6 -14 -12z"/>
<path d="M11396 9778 c-62 -232 -68 -268 -64 -378 3 -104 4 -107 48 -184 33
-57 76 -108 163 -194 64 -65 124 -118 132 -120 12 -3 15 8 15 52 0 53 -29 210
-49 266 -5 14 -19 58 -31 98 -12 40 -32 91 -44 115 -13 23 -26 59 -30 80 -4
21 -10 46 -13 55 -15 38 43 -21 75 -76 76 -133 113 -230 148 -387 27 -120 45
-132 64 -42 5 26 15 68 20 95 13 59 3 174 -20 228 -33 76 -107 180 -166 231
-172 151 -239 194 -248 161z"/>
<path d="M10408 9414 c-142 -13 -201 -28 -279 -71 -83 -44 -131 -106 -217
-273 -94 -183 -100 -200 -75 -200 48 1 170 77 406 252 95 71 175 128 180 128
17 0 4 -31 -42 -96 -60 -86 -188 -194 -321 -271 -55 -32 -100 -62 -100 -67 0
-5 39 -6 88 -3 98 5 197 37 264 83 48 33 119 119 152 184 12 25 28 54 34 65
20 35 93 266 87 276 -4 5 -14 8 -23 8 -9 -1 -78 -8 -154 -15z"/>
<path d="M12695 9323 c-72 -6 -289 -45 -320 -56 -85 -33 -214 -105 -252 -140
-69 -63 -117 -144 -157 -260 -52 -156 -48 -181 19 -104 137 157 329 323 439
382 49 26 116 41 116 25 0 -18 -72 -91 -165 -165 -118 -96 -260 -240 -335
-340 -59 -79 -74 -113 -46 -102 8 3 32 9 53 12 120 21 384 107 443 144 59 37
140 136 171 208 11 26 27 62 35 80 8 17 14 38 14 46 0 8 7 34 16 58 20 58 54
185 54 204 0 15 -2 15 -85 8z"/>
<path d="M8536 9246 c-3 -13 -8 -100 -11 -193 -7 -227 9 -326 72 -435 25 -43
57 -90 71 -106 38 -39 208 -165 262 -192 24 -12 67 -39 95 -59 53 -37 91 -61
100 -61 12 0 3 62 -21 135 -26 81 -40 116 -87 215 -51 106 -143 260 -265 443
-14 20 -22 40 -19 44 10 9 72 -42 119 -99 24 -28 59 -69 79 -92 20 -23 58 -77
84 -121 25 -44 51 -87 56 -95 18 -29 105 -205 122 -247 9 -24 21 -43 26 -43
16 0 24 189 13 285 -24 188 -93 296 -277 428 -90 65 -373 217 -404 217 -5 0
-12 -11 -15 -24z"/>
<path d="M10896 8913 c-11 -12 -6 -51 18 -145 30 -115 64 -215 85 -248 58 -93
160 -174 251 -200 25 -6 70 -21 100 -31 113 -38 200 -58 200 -46 0 15 -21 47
-88 133 -67 86 -127 149 -234 247 -89 81 -144 144 -134 154 8 9 93 -29 161
-72 73 -46 285 -258 309 -309 9 -20 22 -34 28 -30 20 13 -3 100 -68 252 -19
46 -87 115 -155 161 -67 45 -214 95 -339 117 -47 8 -94 16 -106 19 -12 2 -24
2 -28 -2z"/>
<path d="M9885 8562 c-85 -10 -216 -82 -292 -161 -30 -31 -25 -35 18 -17 89
37 443 60 589 38 42 -7 45 -9 45 -37 l0 -30 -156 -6 c-234 -10 -439 -39 -527
-76 -43 -18 -32 -33 46 -63 31 -12 77 -30 102 -41 25 -10 90 -31 145 -45 94
-25 105 -26 179 -14 82 12 160 45 246 103 75 51 180 140 180 153 0 25 -225
140 -345 177 -50 15 -175 26 -230 19z"/>
<path d="M12320 8483 c-74 -16 -144 -55 -224 -125 -70 -63 -187 -220 -174
-234 3 -2 47 18 100 44 240 119 377 163 593 193 83 12 137 9 142 -8 5 -15 -70
-52 -122 -59 -74 -10 -309 -95 -435 -157 -140 -68 -315 -177 -303 -188 12 -11
235 -38 378 -45 127 -7 243 4 283 26 10 5 37 18 62 29 85 36 217 174 344 360
51 75 56 86 42 99 -17 18 -79 32 -307 72 -78 14 -302 10 -379 -7z"/>
<path d="M12245 7680 c-3 -5 -13 -10 -22 -10 -18 0 -56 -17 -191 -83 -203
-101 -269 -213 -302 -512 -12 -108 -12 -145 0 -145 14 0 137 125 195 198 55
69 84 113 130 193 32 55 102 139 116 139 5 0 9 -16 9 -36 0 -39 -83 -215 -130
-274 -15 -19 -36 -49 -46 -66 -11 -17 -47 -61 -81 -99 -53 -57 -73 -85 -60
-85 17 0 124 48 177 79 162 96 230 246 244 532 3 64 3 131 0 148 -6 30 -27 41
-39 21z"/>
<path d="M12718 7311 c-36 -9 -84 -29 -106 -44 -58 -41 -155 -145 -181 -196
-22 -44 -22 -62 1 -44 12 9 92 54 173 96 109 57 309 116 393 117 25 0 32 -4
32 -19 0 -23 -66 -60 -145 -81 -27 -7 -92 -33 -142 -56 -51 -24 -96 -44 -99
-44 -3 0 -43 -22 -89 -50 -46 -27 -87 -50 -92 -50 -14 0 -68 -59 -61 -66 12
-11 324 -22 400 -14 129 15 241 88 326 214 27 39 65 95 85 123 59 84 54 91
-73 111 -138 23 -343 24 -422 3z"/>
<path d="M12277 6714 c-13 -13 -7 -22 29 -45 20 -12 49 -34 64 -48 15 -14 70
-55 121 -91 171 -118 324 -286 305 -335 -5 -14 -12 -12 -48 13 -24 16 -52 40
-63 52 -11 12 -47 43 -80 69 -33 25 -88 71 -122 102 -76 69 -363 233 -379 216
-3 -3 0 -23 7 -44 11 -36 88 -209 109 -245 6 -10 25 -46 43 -80 34 -65 115
-154 176 -192 76 -48 185 -74 405 -96 141 -14 145 -12 120 86 -9 38 -25 85
-35 104 -11 19 -19 40 -19 47 0 19 -60 151 -97 212 -83 140 -247 253 -385 266
-35 3 -81 8 -104 11 -22 2 -43 1 -47 -2z"/>
<path d="M11650 6603 c0 -6 11 -25 24 -44 14 -19 55 -79 93 -133 37 -54 82
-120 100 -145 17 -25 34 -57 38 -70 3 -13 16 -38 29 -55 50 -68 111 -316 77
-316 -14 0 -57 70 -107 175 -26 55 -65 125 -86 156 -20 31 -46 73 -55 95 -22
47 -59 105 -103 159 -54 69 -162 175 -176 175 -15 0 -14 -73 6 -330 18 -235
87 -381 230 -488 61 -45 215 -142 226 -142 6 0 132 -57 157 -71 11 -6 22 -7
25 -4 11 11 18 282 10 430 -10 209 -41 286 -175 434 -39 43 -207 150 -258 163
-11 3 -28 9 -37 13 -10 4 -18 3 -18 -2z"/>
</g>
</svg>
